# Blender 5.2.0 LTS
# www.blender.org
mtllib modelo.mtl
o Cube
v 1.000000 1.000000 -1.000000
v 1.000000 -1.000000 -1.000000
v 1.000000 1.000000 1.000000
v 1.000000 -1.000000 1.000000
v -1.000000 1.000000 -1.000000
v -1.000000 -1.000000 -1.000000
v -1.000000 1.000000 1.000000
v -1.000000 -1.000000 1.000000
v 0.000000 0.000000 1.910114
vn -0.0000 1.0000 -0.0000
vn -0.0000 -0.6731 0.7396
vn -1.0000 -0.0000 -0.0000
vn -0.0000 -1.0000 -0.0000
vn 1.0000 -0.0000 -0.0000
vn -0.0000 -0.0000 -1.0000
vn -0.0000 0.6731 0.7396
vn 0.6731 -0.0000 0.7396
vn -0.6731 -0.0000 0.7396
vt 0.625000 0.500000
vt 0.875000 0.500000
vt 0.875000 0.750000
vt 0.625000 0.750000
vt 0.125000 0.750000
vt 0.375000 0.750000
vt 0.375000 0.000000
vt 0.625000 0.000000
vt 0.625000 0.250000
vt 0.375000 0.250000
vt 0.125000 0.500000
vt 0.375000 0.500000
s 0
usemtl Material
f 1/1/1 5/2/1 7/3/1 3/4/1
f 8/5/2 4/6/2 9/5/2
f 8/7/3 7/8/3 5/9/3 6/10/3
f 6/11/4 2/12/4 4/6/4 8/5/4
f 2/12/5 1/1/5 3/4/5 4/6/5
f 6/10/6 5/9/6 1/1/6 2/12/6
f 3/4/7 7/3/7 9/4/7
f 4/6/8 3/4/8 9/6/8
f 7/8/9 8/7/9 9/8/9
o Cube.001
v 1.000000 1.000000 -1.000000
v 1.000000 -1.000000 -1.000000
v 1.000000 1.000000 1.000000
v 1.000000 -1.000000 1.000000
v -1.000000 1.000000 -1.000000
v -1.000000 -1.000000 -1.000000
v -1.000000 1.000000 1.000000
v -1.000000 -1.000000 1.000000
vn -0.0000 1.0000 -0.0000
vn -0.0000 -0.0000 1.0000
vn -1.0000 -0.0000 -0.0000
vn -0.0000 -1.0000 -0.0000
vn 1.0000 -0.0000 -0.0000
vn -0.0000 -0.0000 -1.0000
vt 0.625000 0.500000
vt 0.875000 0.500000
vt 0.875000 0.750000
vt 0.625000 0.750000
vt 0.375000 0.750000
vt 0.625000 1.000000
vt 0.375000 1.000000
vt 0.375000 0.000000
vt 0.625000 0.000000
vt 0.625000 0.250000
vt 0.375000 0.250000
vt 0.125000 0.500000
vt 0.375000 0.500000
vt 0.125000 0.750000
s 1
usemtl Material.001
f 10/13/10 14/14/10 16/15/10 12/16/10
f 13/17/11 12/16/11 16/18/11 17/19/11
f 17/20/12 16/21/12 14/22/12 15/23/12
f 15/24/13 11/25/13 13/17/13 17/26/13
f 11/25/14 10/13/14 12/16/14 13/17/14
f 15/23/15 14/22/15 10/13/15 11/25/15
