# Blender 5.2.0 LTS
# www.blender.org
mtllib WIP.mtl
o Cube
v -0.604457 0.013661 1.105381
v -0.345836 1.925346 1.105381
v -0.604060 0.013661 -0.520410
v -0.345836 1.925346 -0.520410
v -0.036428 0.013661 -0.520410
v -0.036428 1.977428 -0.520410
v -0.036428 0.013661 1.105381
v -0.036428 1.977428 1.105381
v -0.552590 1.812274 -0.520410
v -0.860371 1.325105 -0.520410
v -0.929173 1.007409 -0.520410
v -0.947930 0.680328 -0.520410
v -0.904164 0.346995 -0.520410
v -0.552590 1.812274 1.105381
v -0.860371 1.325105 1.105381
v -0.929173 1.007409 1.105381
v -0.947930 0.680328 1.105381
v -0.904164 0.346995 1.105381
v -0.036428 1.807143 1.105381
v -0.036428 1.807143 -0.520410
v -0.036428 1.346995 -0.520410
v -0.036428 1.013661 -0.520410
v -0.036428 0.680328 -0.520410
v -0.036428 0.346995 -0.520410
v -0.816634 0.180328 -0.520410
v -0.816634 0.180328 1.105381
v -0.036428 0.180328 -0.520410
v -0.729126 1.591335 -0.520410
v -0.729126 1.591335 1.105381
v -0.036428 1.586127 -0.520410
v -0.576675 0.013661 1.203868
v -0.345836 1.925346 1.104831
v -0.036428 0.013661 1.787346
v -0.036428 1.977428 1.104831
v -0.552590 1.812274 1.105929
v -0.794697 1.325105 1.410777
v -0.874306 1.002458 1.496920
v -0.889783 0.701062 1.564916
v -0.849093 0.362831 1.560741
v -0.036428 1.807143 1.614686
v -0.036428 1.346995 2.057172
v -0.036428 1.013661 2.255037
v -0.036428 0.680328 2.309788
v -0.036428 0.346995 2.229673
v -0.754259 0.185408 1.461030
v -0.036428 0.180328 2.091029
v -0.681161 1.589021 1.267562
v -0.036428 1.586127 1.897344
v -0.191132 1.951387 -0.520410
v -0.320244 0.013661 -0.520410
v -0.191132 1.951387 1.105381
v -0.470296 0.346995 -0.520410
v -0.492179 0.680328 -0.520410
v -0.482800 1.010535 -0.520410
v -0.448399 1.336050 -0.520410
v -0.294509 1.809708 -0.520410
v -0.426531 0.180328 -0.520410
v -0.382777 1.588731 -0.520410
v -0.320744 0.013661 1.787346
v -0.191132 1.951387 1.104831
v -0.470296 0.346995 2.099142
v -0.492179 0.680328 2.161455
v -0.482800 1.010535 2.100243
v -0.448399 1.336050 1.898526
v -0.294509 1.809708 1.484653
v -0.426531 0.180328 1.987291
v -0.382777 1.588731 1.719754
v -0.178336 0.013661 -0.520410
v -0.113780 1.964408 1.105381
v -0.113780 1.964408 1.104831
v -0.253362 0.346995 2.225961
v -0.264303 0.680328 2.277693
v -0.259614 1.012098 2.221494
v -0.242413 1.341522 2.013960
v -0.165468 1.808425 1.581558
v -0.231479 0.180328 2.091029
v -0.209602 1.587429 1.851886
v -0.113780 1.964408 -0.520410
v -0.253362 0.346995 -0.520410
v -0.264303 0.680328 -0.520410
v -0.259614 1.012098 -0.520410
v -0.242413 1.341522 -0.520410
v -0.165468 1.808425 -0.520410
v -0.231479 0.180328 -0.520410
v -0.209602 1.587429 -0.520410
v -0.178336 0.013661 1.787346
v -0.268484 1.938367 -0.520410
v -0.687230 0.346995 -0.520410
v -0.720054 0.680328 -0.520410
v -0.705987 1.008972 -0.520410
v -0.654385 1.330577 -0.520410
v -0.423549 1.810991 -0.520410
v -0.621582 0.180328 -0.520410
v -0.555951 1.590033 -0.520410
v -0.461414 0.013661 1.438444
v -0.462152 0.013661 -0.520410
v -0.268484 1.938367 1.105381
v -0.268484 1.938367 1.104831
v -0.687230 0.346995 1.879593
v -0.730702 0.687264 1.931728
v -0.705987 1.008972 1.859938
v -0.654385 1.330577 1.707093
v -0.423549 1.810991 1.339762
v -0.621582 0.180328 1.740949
v -0.555951 1.590033 1.547264
v -0.321245 0.013661 1.105381
v -0.460677 0.013661 1.105381
v -0.576735 0.013661 1.105381
v -0.036428 1.260289 2.115692
v -0.036428 1.107008 2.195930
v -0.113515 1.249636 2.134695
v -0.157444 1.214647 2.145324
v -0.165851 1.138002 2.164980
v -0.449213 1.868810 -0.520410
v -0.449213 1.868810 1.105381
v -0.036428 1.892286 1.105381
v -0.036428 1.892286 -0.520410
v -0.449213 1.868810 1.105380
v -0.036428 1.892286 1.378456
v -0.242820 1.880548 1.294743
v -0.242820 1.880548 -0.520410
v -0.139624 1.886417 -0.520410
v -0.139624 1.886417 1.361892
v -0.346016 1.874679 1.222297
v -0.346016 1.874679 -0.520410
v -0.036428 1.319556 2.193957
v -0.036428 1.120705 2.209136
v -0.120011 1.277649 2.186690
v -0.163998 1.242655 2.201332
v -0.165851 1.151698 2.206435
v -0.036428 1.365358 2.283595
v -0.036428 1.124561 2.223443
v -0.120436 1.314915 2.260314
v -0.168949 1.248223 2.242176
v -0.182398 1.158979 2.233582
v -0.036428 1.367028 2.412658
v -0.036428 1.110823 2.245502
v -0.115020 1.315730 2.348288
v -0.173617 1.261879 2.312173
v -0.176983 1.147809 2.270194
v -0.036428 1.271082 2.575217
v -0.036428 1.011452 2.289927
v -0.119428 1.230259 2.526161
v -0.190011 1.139634 2.430218
v -0.176689 1.085248 2.352178
v -0.036428 1.116650 2.664083
v -0.036428 0.831339 2.310311
v -0.156061 1.057411 2.598590
v -0.226278 0.989482 2.506244
v -0.216266 0.931672 2.401760
v -0.036428 0.903935 2.709496
v -0.036428 0.708508 2.312066
v -0.207881 0.885068 2.647656
v -0.292679 0.817857 2.534535
v -0.250615 0.777167 2.435219
v -0.036428 0.738639 2.718382
v -0.036428 0.628045 2.325399
v -0.239024 0.726371 2.641318
v -0.320217 0.689456 2.534772
v -0.265415 0.659039 2.441530
v -0.036428 0.550889 2.701333
v -0.036428 0.501668 2.344398
v -0.217369 0.542768 2.630465
v -0.289631 0.491828 2.537178
v -0.213654 0.509104 2.425811
v -0.036428 0.469779 2.660365
v -0.036428 0.438063 2.393759
v -0.134067 0.438733 2.611719
v -0.181150 0.416428 2.525831
v -0.137167 0.429599 2.437833
v -0.036428 0.401093 2.572957
v -0.036428 0.393876 2.535125
v -0.036428 0.397801 2.478132
v 0.531601 0.013661 1.105381
v 0.272980 1.925346 1.105381
v 0.531204 0.013661 -0.520410
v 0.272980 1.925346 -0.520410
v 0.479734 1.812274 -0.520410
v 0.787515 1.325105 -0.520410
v 0.856318 1.007409 -0.520410
v 0.875074 0.680328 -0.520410
v 0.831309 0.346995 -0.520410
v 0.479734 1.812274 1.105381
v 0.787515 1.325105 1.105381
v 0.856318 1.007409 1.105381
v 0.875074 0.680328 1.105381
v 0.831309 0.346995 1.105381
v 0.743778 0.180328 -0.520410
v 0.743778 0.180328 1.105381
v 0.656270 1.591335 -0.520410
v 0.656270 1.591335 1.105381
v 0.503820 0.013661 1.203868
v 0.272980 1.925346 1.104831
v 0.479734 1.812274 1.105929
v 0.721842 1.325105 1.410777
v 0.801451 1.002458 1.496920
v 0.816927 0.701062 1.564916
v 0.776238 0.362831 1.560741
v 0.681404 0.185408 1.461030
v 0.608305 1.589021 1.267562
v 0.118276 1.951387 -0.520410
v 0.247388 0.013661 -0.520410
v 0.118276 1.951387 1.105381
v 0.397441 0.346995 -0.520410
v 0.419323 0.680328 -0.520410
v 0.409945 1.010535 -0.520410
v 0.375544 1.336050 -0.520410
v 0.221653 1.809708 -0.520410
v 0.353675 0.180328 -0.520410
v 0.309921 1.588731 -0.520410
v 0.247889 0.013661 1.787346
v 0.118276 1.951387 1.104831
v 0.397441 0.346995 2.099142
v 0.419323 0.680328 2.161455
v 0.409945 1.010535 2.100243
v 0.375544 1.336050 1.898526
v 0.221653 1.809708 1.484653
v 0.353675 0.180328 1.987291
v 0.309921 1.588731 1.719754
v 0.105480 0.013661 -0.520410
v 0.040924 1.964408 1.105381
v 0.040924 1.964408 1.104831
v 0.180506 0.346995 2.225961
v 0.191448 0.680328 2.277693
v 0.186759 1.012098 2.221494
v 0.169558 1.341522 2.013960
v 0.092613 1.808425 1.581558
v 0.158624 0.180328 2.091029
v 0.136747 1.587429 1.851886
v 0.040924 1.964408 -0.520410
v 0.180506 0.346995 -0.520410
v 0.191448 0.680328 -0.520410
v 0.186759 1.012098 -0.520410
v 0.169558 1.341522 -0.520410
v 0.092613 1.808425 -0.520410
v 0.158624 0.180328 -0.520410
v 0.136747 1.587429 -0.520410
v 0.105480 0.013661 1.787346
v 0.195628 1.938367 -0.520410
v 0.614375 0.346995 -0.520410
v 0.647199 0.680328 -0.520410
v 0.633131 1.008972 -0.520410
v 0.581529 1.330577 -0.520410
v 0.350694 1.810991 -0.520410
v 0.548727 0.180328 -0.520410
v 0.483096 1.590033 -0.520410
v 0.388559 0.013661 1.438444
v 0.389296 0.013661 -0.520410
v 0.195628 1.938367 1.105381
v 0.195628 1.938367 1.104831
v 0.614375 0.346995 1.879593
v 0.657846 0.687264 1.931728
v 0.633131 1.008972 1.859938
v 0.581529 1.330577 1.707093
v 0.350694 1.810991 1.339762
v 0.548727 0.180328 1.740949
v 0.483096 1.590033 1.547264
v 0.248390 0.013661 1.105381
v 0.387821 0.013661 1.105381
v 0.503880 0.013661 1.105381
v 0.040659 1.249636 2.134695
v 0.084588 1.214647 2.145324
v 0.092996 1.138002 2.164980
v 0.376357 1.868810 -0.520410
v 0.376357 1.868810 1.105381
v 0.376357 1.868810 1.105380
v 0.169965 1.880548 1.294743
v 0.169965 1.880548 -0.520410
v 0.066768 1.886417 -0.520410
v 0.066768 1.886417 1.361892
v 0.273161 1.874679 1.222297
v 0.273161 1.874679 -0.520410
v 0.047155 1.277649 2.186690
v 0.091142 1.242655 2.201332
v 0.092996 1.151698 2.206435
v 0.047580 1.314915 2.260314
v 0.096094 1.248223 2.242176
v 0.109543 1.158979 2.233582
v 0.042165 1.315730 2.348288
v 0.100761 1.261879 2.312173
v 0.104127 1.147809 2.270194
v 0.046572 1.230259 2.526161
v 0.117155 1.139634 2.430218
v 0.103833 1.085248 2.352178
v 0.083206 1.057411 2.598590
v 0.153422 0.989482 2.506244
v 0.143411 0.931672 2.401760
v 0.135026 0.885068 2.647656
v 0.219824 0.817857 2.534535
v 0.177760 0.777167 2.435219
v 0.166168 0.726371 2.641318
v 0.247362 0.689456 2.534772
v 0.192560 0.659039 2.441530
v 0.144513 0.542768 2.630465
v 0.216775 0.491828 2.537178
v 0.140799 0.509104 2.425811
v 0.061212 0.438733 2.611719
v 0.108295 0.416428 2.525831
v 0.064311 0.429599 2.437833
vn -0.0000 -0.0000 -1.0000
vn -0.4798 0.8774 -0.0000
vn -0.1660 0.9861 -0.0000
vn -0.9553 0.2439 0.1670
vn -0.6007 -0.7892 0.1281
vn -0.7601 0.6067 0.2327
vn -0.8853 -0.4650 -0.0000
vn -0.9915 -0.1302 -0.0000
vn -0.9984 0.0573 -0.0000
vn -0.9773 0.2117 -0.0000
vn -0.7812 0.6242 -0.0000
vn -0.6174 -0.7867 -0.0001
vn -0.8583 -0.4946 0.1370
vn -0.8641 0.4563 0.2123
vn -0.8969 0.4422 -0.0000
vn -0.1256 0.9500 0.2859
vn -0.0070 -0.6347 0.7727
vn -0.0787 -0.1947 0.9777
vn -0.1426 0.1638 0.9761
vn -0.1994 0.5487 0.8119
vn -0.1519 0.7779 0.6097
vn -0.0000 -0.8767 0.4811
vn -0.1957 0.5514 0.8109
vn -0.9892 0.0680 0.1301
vn -0.9841 -0.1245 0.1268
vn 0.1660 -0.9861 -0.0000
vn 1.0000 -0.0000 -0.0000
vn 0.4798 -0.8774 -0.0000
vn -0.5712 0.5721 0.5886
vn -0.4979 -0.8205 0.2808
vn -0.4953 0.7256 0.4776
vn -0.6432 0.4319 0.6323
vn -0.7010 0.1776 0.6907
vn -0.6915 -0.1857 0.6981
vn -0.6011 -0.5968 0.5316
vn -0.2216 0.9241 0.3113
vn -0.0000 -1.0000 -0.0000
vn -0.4566 0.5618 0.6899
vn -0.1568 -0.8456 0.5102
vn -0.4031 0.7386 0.5403
vn -0.4235 0.5038 0.7529
vn -0.4600 0.1645 0.8726
vn -0.4724 -0.1712 0.8646
vn -0.3921 -0.5960 0.7007
vn -0.2016 0.9393 0.2778
vn -0.3323 0.8662 0.3731
vn -0.7379 -0.5815 0.3426
vn -0.8984 -0.1458 0.4142
vn -0.9016 0.1492 0.4060
vn -0.8596 0.3222 0.3965
vn -0.6675 0.6671 0.3308
vn -0.4803 -0.8483 0.2231
vn -0.7782 0.5195 0.3529
vn -0.9950 0.0480 -0.0874
vn -0.4107 0.8738 0.2605
vn -0.2264 0.9284 0.2945
vn -0.2825 0.9167 0.2825
vn -0.4797 0.8774 -0.0000
vn -0.0894 0.9394 0.3311
vn -0.9451 0.0864 -0.3152
vn -0.2968 0.7864 -0.5417
vn -0.2628 -0.8626 0.4323
vn -0.6368 0.6503 -0.4143
vn -0.2665 -0.8958 -0.3557
vn -0.3778 0.8248 -0.4206
vn -0.2235 -0.9600 0.1687
vn -0.7060 0.6518 -0.2771
vn -0.9967 -0.0011 -0.0812
vn -0.7330 0.6777 -0.0586
vn -0.9967 0.0812 0.0051
vn -0.5318 0.8469 0.0036
vn -0.4836 -0.1243 -0.8664
vn -0.6386 0.6825 0.3555
vn -0.4378 -0.5537 -0.7083
vn -0.8287 0.4838 0.2813
vn -0.8670 0.3559 0.3486
vn -0.9645 0.1514 -0.2164
vn -0.5936 0.4082 0.6935
vn -0.3508 0.0411 0.9355
vn -0.9150 0.2184 -0.3393
vn -0.4457 0.2694 0.8537
vn -0.4939 -0.0491 -0.8681
vn -0.8416 0.3764 0.3874
vn -0.7617 -0.1185 0.6370
vn -0.4833 -0.0504 -0.8740
vn -0.8223 0.1564 0.5472
vn -0.8641 0.1355 -0.4847
vn -0.5726 -0.6857 -0.4493
vn -0.8343 -0.1777 -0.5219
vn -0.3542 -0.0906 0.9308
vn -0.4426 -0.0935 -0.8919
vn -0.3088 -0.4150 0.8558
vn -0.3496 -0.5209 -0.7787
vn -0.4995 -0.6330 0.5915
vn -0.1959 -0.9344 0.2975
vn -0.1804 -0.9690 -0.1690
vn -0.0577 -0.7850 0.6168
vn -0.1119 -0.8968 -0.4280
vn 0.4798 0.8774 -0.0000
vn 0.1660 0.9861 -0.0000
vn 0.9553 0.2439 0.1670
vn 0.6007 -0.7892 0.1281
vn 0.7601 0.6067 0.2327
vn 0.8853 -0.4650 -0.0000
vn 0.9915 -0.1302 -0.0000
vn 0.9984 0.0573 -0.0000
vn 0.9773 0.2117 -0.0000
vn 0.7812 0.6242 -0.0000
vn 0.6174 -0.7867 -0.0001
vn 0.8583 -0.4946 0.1370
vn 0.8641 0.4563 0.2123
vn 0.8969 0.4422 -0.0000
vn 0.1256 0.9500 0.2859
vn 0.0070 -0.6347 0.7727
vn 0.0787 -0.1947 0.9777
vn 0.1426 0.1638 0.9761
vn 0.1994 0.5487 0.8119
vn 0.1519 0.7779 0.6097
vn 0.1957 0.5514 0.8109
vn 0.9892 0.0680 0.1301
vn 0.9841 -0.1245 0.1268
vn -0.1660 -0.9861 -0.0000
vn -0.4798 -0.8774 -0.0000
vn 0.5712 0.5721 0.5886
vn 0.4979 -0.8205 0.2808
vn 0.4953 0.7256 0.4776
vn 0.6432 0.4319 0.6323
vn 0.7010 0.1776 0.6907
vn 0.6915 -0.1857 0.6981
vn 0.6011 -0.5968 0.5316
vn 0.2216 0.9241 0.3113
vn 0.4566 0.5618 0.6899
vn 0.1568 -0.8456 0.5102
vn 0.4031 0.7386 0.5403
vn 0.4235 0.5038 0.7529
vn 0.4600 0.1645 0.8726
vn 0.4724 -0.1712 0.8646
vn 0.3921 -0.5960 0.7007
vn 0.2016 0.9393 0.2778
vn 0.3323 0.8662 0.3731
vn 0.7379 -0.5815 0.3426
vn 0.8984 -0.1458 0.4142
vn 0.9016 0.1492 0.4060
vn 0.8596 0.3222 0.3965
vn 0.6675 0.6671 0.3308
vn 0.4803 -0.8483 0.2231
vn 0.7782 0.5195 0.3529
vn 0.9950 0.0480 -0.0874
vn 0.4107 0.8738 0.2605
vn 0.2264 0.9284 0.2945
vn 0.2825 0.9167 0.2825
vn 0.4797 0.8774 -0.0000
vn 0.0894 0.9394 0.3311
vn 0.9451 0.0864 -0.3152
vn 0.2968 0.7864 -0.5417
vn 0.2628 -0.8626 0.4323
vn 0.6368 0.6503 -0.4143
vn 0.2665 -0.8958 -0.3557
vn 0.3778 0.8248 -0.4206
vn 0.2235 -0.9600 0.1687
vn 0.7060 0.6518 -0.2771
vn 0.9967 -0.0011 -0.0812
vn 0.7330 0.6777 -0.0586
vn 0.9967 0.0812 0.0051
vn 0.5318 0.8469 0.0036
vn 0.4836 -0.1243 -0.8664
vn 0.6386 0.6825 0.3555
vn 0.4378 -0.5537 -0.7083
vn 0.8287 0.4838 0.2813
vn 0.8670 0.3559 0.3486
vn 0.9645 0.1514 -0.2164
vn 0.5936 0.4082 0.6935
vn 0.3508 0.0411 0.9355
vn 0.9150 0.2184 -0.3393
vn 0.4457 0.2694 0.8537
vn 0.4939 -0.0491 -0.8681
vn 0.8416 0.3764 0.3874
vn 0.7617 -0.1185 0.6370
vn 0.4833 -0.0504 -0.8740
vn 0.8223 0.1564 0.5472
vn 0.8641 0.1355 -0.4847
vn 0.5726 -0.6857 -0.4493
vn 0.8343 -0.1777 -0.5219
vn 0.3542 -0.0906 0.9308
vn 0.4426 -0.0935 -0.8919
vn 0.3088 -0.4150 0.8558
vn 0.3496 -0.5209 -0.7787
vn 0.4995 -0.6330 0.5915
vn 0.1959 -0.9344 0.2975
vn 0.1804 -0.9690 -0.1690
vn 0.0577 -0.7850 0.6168
vn 0.1119 -0.8968 -0.4280
vt 0.604167 0.468750
vt 0.625000 0.468750
vt 0.625000 0.500000
vt 0.604167 0.500000
vt 0.625000 0.750000
vt 0.604167 0.750000
vt 0.718750 0.500000
vt 0.750000 0.500000
vt 0.750000 0.750000
vt 0.718750 0.750000
vt 0.500000 0.750000
vt 0.541667 0.750000
vt 0.375000 0.750000
vt 0.395833 0.750000
vt 0.562500 0.750000
vt 0.583333 0.750000
vt 0.395833 0.500000
vt 0.416667 0.500000
vt 0.416667 0.750000
vt 0.458333 0.500000
vt 0.458333 0.750000
vt 0.500000 0.500000
vt 0.541667 0.500000
vt 0.562500 0.500000
vt 0.583333 0.500000
vt 0.395833 0.468750
vt 0.416667 0.468750
vt 0.458333 0.468750
vt 0.500000 0.468750
vt 0.541667 0.468750
vt 0.562500 0.468750
vt 0.583333 0.468750
vt 0.375000 0.468750
vt 0.375000 0.500000
vt 0.604167 0.843750
vt 0.625000 0.843750
vt 0.625000 0.875000
vt 0.604167 0.875000
vt 0.395833 0.843750
vt 0.416667 0.843750
vt 0.416667 0.875000
vt 0.395833 0.875000
vt 0.458333 0.843750
vt 0.458333 0.875000
vt 0.500000 0.843750
vt 0.500000 0.875000
vt 0.541667 0.843750
vt 0.541667 0.875000
vt 0.526558 0.875000
vt 0.521867 0.867316
vt 0.514839 0.856033
vt 0.510947 0.862567
vt 0.506496 0.875000
vt 0.562500 0.843750
vt 0.583333 0.843750
vt 0.583333 0.875000
vt 0.562500 0.875000
vt 0.375000 0.843750
vt 0.375000 0.875000
vt 0.000000 0.000000
vt 0.604167 0.750000
vt 0.656250 0.750000
vt 0.687500 0.750000
vt 0.541667 0.781250
vt 0.562500 0.781250
vt 0.562500 0.812500
vt 0.541667 0.812500
vt 0.375000 0.781250
vt 0.395833 0.781250
vt 0.395833 0.812500
vt 0.375000 0.812500
vt 0.583333 0.781250
vt 0.583333 0.812500
vt 0.500000 0.781250
vt 0.500000 0.812500
vt 0.458333 0.781250
vt 0.458333 0.812500
vt 0.416667 0.781250
vt 0.416667 0.812500
vt 0.604167 0.781250
vt 0.625000 0.781250
vt 0.625000 0.812500
vt 0.604167 0.812500
vt 0.541667 0.406250
vt 0.562500 0.406250
vt 0.562500 0.437500
vt 0.541667 0.437500
vt 0.375000 0.375000
vt 0.375000 0.406250
vt 0.375000 0.437500
vt 0.395833 0.406250
vt 0.395833 0.437500
vt 0.583333 0.406250
vt 0.583333 0.437500
vt 0.500000 0.406250
vt 0.500000 0.437500
vt 0.458333 0.406250
vt 0.458333 0.437500
vt 0.416667 0.406250
vt 0.416667 0.437500
vt 0.656250 0.500000
vt 0.687500 0.500000
vt 0.604167 0.406250
vt 0.625000 0.406250
vt 0.625000 0.437500
vt 0.604167 0.437500
vt 0.604167 0.375000
vt 0.625000 0.375000
vt 0.395833 0.375000
vt 0.416667 0.375000
vt 0.458333 0.375000
vt 0.500000 0.375000
vt 0.541667 0.375000
vt 0.562500 0.375000
vt 0.583333 0.375000
s 0
f 125/1/1 114/4/1 4/3/1 87/2/1
f 114/4/2 115/6/2 2/5/2 4/3/2
f 78/7/3 69/10/3 8/9/3 6/8/3
f 16/11/4 37/11/4 36/12/4 15/12/4
f 1/13/5 31/13/5 45/14/5 26/14/5
f 29/15/6 47/15/6 35/16/6 14/16/6
f 25/17/7 26/14/7 18/19/7 13/18/7
f 13/18/8 18/19/8 17/21/8 12/20/8
f 12/20/9 17/21/9 16/11/9 11/22/9
f 11/22/10 16/11/10 15/12/10 10/23/10
f 28/24/11 29/15/11 14/16/11 9/25/11
f 93/26/1 25/17/1 13/18/1 88/27/1
f 88/27/1 13/18/1 12/20/1 89/28/1
f 89/28/1 12/20/1 11/22/1 90/29/1
f 90/29/1 11/22/1 10/23/1 91/30/1
f 94/31/1 28/24/1 9/25/1 92/32/1
f 96/33/1 3/34/1 25/17/1 93/26/1
f 3/34/12 1/13/12 26/14/12 25/17/12
f 26/14/13 45/14/13 39/19/13 18/19/13
f 15/12/14 36/12/14 47/15/14 29/15/14
f 91/30/1 10/23/1 28/24/1 94/31/1
f 10/23/15 15/12/15 29/15/15 28/24/15
f 123/35/16 119/38/16 34/37/16 70/36/16
f 76/39/17 46/42/17 44/41/17 71/40/17
f 71/40/18 44/41/18 43/44/18 72/43/18
f 72/43/19 43/44/19 42/46/19 73/45/19
f 73/45/20 42/46/20 110/53/20 113/52/20 112/51/20 111/50/20 109/49/20 41/48/20 74/47/20
f 77/54/21 48/57/21 40/56/21 75/55/21
f 86/58/22 33/59/22 46/42/22 76/39/22
f 74/47/23 41/48/23 48/57/23 77/54/23
f 17/21/24 38/21/24 37/11/24 16/11/24
f 18/19/25 39/19/25 38/21/25 17/21/25
f 69/10/26 70/10/26 34/9/26 8/9/26
f 116/60/27 119/60/27 40/60/27 19/60/27
f 115/6/28 118/61/28 32/5/28 2/5/28
f 97/62/26 98/62/26 60/63/26 51/63/26
f 102/64/29 64/67/29 67/66/29 105/65/29
f 95/68/30 59/71/30 66/70/30 104/69/30
f 105/65/31 67/66/31 65/73/31 103/72/31
f 101/74/32 63/75/32 64/67/32 102/64/32
f 100/76/33 62/77/33 63/75/33 101/74/33
f 99/78/34 61/79/34 62/77/34 100/76/34
f 104/69/35 66/70/35 61/79/35 99/78/35
f 124/80/36 120/83/36 60/82/36 98/81/36
f 82/84/1 55/87/1 58/86/1 85/85/1
f 1/13/37 3/34/37 96/33/37 50/90/37 68/89/37 5/88/37 7/60/37
f 68/89/1 50/90/1 57/92/1 84/91/1
f 85/85/1 58/86/1 56/94/1 83/93/1
f 81/95/1 54/96/1 55/87/1 82/84/1
f 80/97/1 53/98/1 54/96/1 81/95/1
f 79/99/1 52/100/1 53/98/1 80/97/1
f 84/91/1 57/92/1 52/100/1 79/99/1
f 87/101/3 97/62/3 51/63/3 49/102/3
f 122/103/1 121/106/1 49/105/1 78/104/1
f 117/107/1 122/103/1 78/104/1 6/108/1
f 27/109/1 84/91/1 79/99/1 24/110/1
f 24/110/1 79/99/1 80/97/1 23/111/1
f 23/111/1 80/97/1 81/95/1 22/112/1
f 22/112/1 81/95/1 82/84/1 21/113/1
f 30/114/1 85/85/1 83/93/1 20/115/1
f 5/88/1 68/89/1 84/91/1 27/109/1
f 21/113/1 82/84/1 85/85/1 30/114/1
f 51/63/26 60/63/26 70/10/26 69/10/26
f 64/67/38 74/47/38 77/54/38 67/66/38
f 59/71/39 86/58/39 76/39/39 66/70/39
f 67/66/40 77/54/40 75/55/40 65/73/40
f 63/75/41 73/45/41 74/47/41 64/67/41
f 62/77/42 72/43/42 73/45/42 63/75/42
f 61/79/43 71/40/43 72/43/43 62/77/43
f 66/70/44 76/39/44 71/40/44 61/79/44
f 120/83/45 123/35/45 70/36/45 60/82/45
f 49/102/3 51/63/3 69/10/3 78/7/3
f 4/3/3 2/5/3 97/62/3 87/101/3
f 118/61/46 124/80/46 98/81/46 32/5/46
f 45/14/47 104/69/47 99/78/47 39/19/47
f 39/19/48 99/78/48 100/76/48 38/21/48
f 38/21/49 100/76/49 101/74/49 37/11/49
f 37/11/50 101/74/50 102/64/50 36/12/50
f 47/15/51 105/65/51 103/72/51 35/16/51
f 31/13/52 95/68/52 104/69/52 45/14/52
f 36/12/53 102/64/53 105/65/53 47/15/53
f 2/5/26 32/5/26 98/62/26 97/62/26
f 55/87/1 91/30/1 94/31/1 58/86/1
f 50/90/1 96/33/1 93/26/1 57/92/1
f 58/86/1 94/31/1 92/32/1 56/94/1
f 54/96/1 90/29/1 91/30/1 55/87/1
f 53/98/1 89/28/1 90/29/1 54/96/1
f 52/100/1 88/27/1 89/28/1 53/98/1
f 57/92/1 93/26/1 88/27/1 52/100/1
f 121/106/1 125/1/1 87/2/1 49/105/1
f 33/60/37 59/60/37 106/60/37 7/60/37
f 59/60/37 95/60/37 107/60/37 106/60/37
f 1/60/37 108/60/37 31/60/37
f 31/60/37 108/60/37 107/60/37 95/60/37
f 113/52/54 130/52/54 129/51/54 112/51/54
f 56/94/1 92/32/1 125/1/1 121/106/1
f 35/16/55 103/72/55 124/80/55 118/61/55
f 65/73/56 75/55/56 123/35/56 120/83/56
f 20/115/1 83/93/1 122/103/1 117/107/1
f 83/93/1 56/94/1 121/106/1 122/103/1
f 103/72/57 65/73/57 120/83/57 124/80/57
f 14/16/58 35/16/58 118/61/58 115/6/58
f 8/60/27 34/60/27 119/60/27 116/60/27
f 75/55/59 40/56/59 119/38/59 123/35/59
f 9/25/2 14/16/2 115/6/2 114/4/2
f 92/32/1 9/25/1 114/4/1 125/1/1
f 130/52/60 135/52/60 134/51/60 129/51/60
f 111/50/61 128/50/61 126/49/61 109/49/61
f 110/53/62 127/53/62 130/52/62 113/52/62
f 112/51/63 129/51/63 128/50/63 111/50/63
f 132/53/64 137/53/64 140/52/64 135/52/64
f 128/50/65 133/50/65 131/49/65 126/49/65
f 127/53/66 132/53/66 135/52/66 130/52/66
f 129/51/67 134/51/67 133/50/67 128/50/67
f 140/52/68 145/52/68 144/51/68 139/51/68
f 134/51/69 139/51/69 138/50/69 133/50/69
f 135/52/70 140/52/70 139/51/70 134/51/70
f 133/50/71 138/50/71 136/49/71 131/49/71
f 142/53/72 147/53/72 150/52/72 145/52/72
f 138/50/73 143/50/73 141/49/73 136/49/73
f 137/53/74 142/53/74 145/52/74 140/52/74
f 139/51/75 144/51/75 143/50/75 138/50/75
f 144/51/76 149/51/76 148/50/76 143/50/76
f 145/52/77 150/52/77 149/51/77 144/51/77
f 143/50/78 148/50/78 146/49/78 141/49/78
f 153/50/79 158/50/79 156/49/79 151/49/79
f 150/52/80 155/52/80 154/51/80 149/51/80
f 148/50/81 153/50/81 151/49/81 146/49/81
f 147/53/82 152/53/82 155/52/82 150/52/82
f 149/51/83 154/51/83 153/50/83 148/50/83
f 159/51/84 164/51/84 163/50/84 158/50/84
f 152/53/85 157/53/85 160/52/85 155/52/85
f 154/51/86 159/51/86 158/50/86 153/50/86
f 155/52/87 160/52/87 159/51/87 154/51/87
f 165/52/88 170/52/88 169/51/88 164/51/88
f 160/52/89 165/52/89 164/51/89 159/51/89
f 158/50/90 163/50/90 161/49/90 156/49/90
f 157/53/91 162/53/91 165/52/91 160/52/91
f 163/50/92 168/50/92 166/49/92 161/49/92
f 162/53/93 167/53/93 170/52/93 165/52/93
f 164/51/94 169/51/94 168/50/94 163/50/94
f 169/51/95 172/51/95 171/50/95 168/50/95
f 170/52/96 173/52/96 172/51/96 169/51/96
f 168/50/97 171/50/97 166/49/97
f 167/53/98 173/53/98 170/52/98
f 272/1/1 239/2/1 177/3/1 264/4/1
f 264/4/99 177/3/99 175/5/99 265/6/99
f 230/7/100 6/8/100 8/9/100 221/10/100
f 185/11/101 184/12/101 195/12/101 196/11/101
f 174/13/102 189/14/102 199/14/102 192/13/102
f 191/15/103 183/16/103 194/16/103 200/15/103
f 188/17/104 182/18/104 187/19/104 189/14/104
f 182/18/105 181/20/105 186/21/105 187/19/105
f 181/20/106 180/22/106 185/11/106 186/21/106
f 180/22/107 179/23/107 184/12/107 185/11/107
f 190/24/108 178/25/108 183/16/108 191/15/108
f 245/26/1 240/27/1 182/18/1 188/17/1
f 240/27/1 241/28/1 181/20/1 182/18/1
f 241/28/1 242/29/1 180/22/1 181/20/1
f 242/29/1 243/30/1 179/23/1 180/22/1
f 246/31/1 244/32/1 178/25/1 190/24/1
f 248/33/1 245/26/1 188/17/1 176/34/1
f 176/34/109 188/17/109 189/14/109 174/13/109
f 189/14/110 187/19/110 198/19/110 199/14/110
f 184/12/111 191/15/111 200/15/111 195/12/111
f 243/30/1 246/31/1 190/24/1 179/23/1
f 179/23/112 190/24/112 191/15/112 184/12/112
f 270/35/113 222/36/113 34/37/113 119/38/113
f 228/39/114 223/40/114 44/41/114 46/42/114
f 223/40/115 224/43/115 43/44/115 44/41/115
f 224/43/116 225/45/116 42/46/116 43/44/116
f 225/45/117 226/47/117 41/48/117 109/49/117 261/50/117 262/51/117 263/52/117 110/53/117 42/46/117
f 229/54/118 227/55/118 40/56/118 48/57/118
f 238/58/22 228/39/22 46/42/22 33/59/22
f 226/47/119 229/54/119 48/57/119 41/48/119
f 186/21/120 185/11/120 196/11/120 197/21/120
f 187/19/121 186/21/121 197/21/121 198/19/121
f 221/10/122 8/9/122 34/9/122 222/10/122
f 265/6/123 175/5/123 193/5/123 266/61/123
f 249/62/122 203/63/122 212/63/122 250/62/122
f 254/64/124 257/65/124 219/66/124 216/67/124
f 247/68/125 256/69/125 218/70/125 211/71/125
f 257/65/126 255/72/126 217/73/126 219/66/126
f 253/74/127 254/64/127 216/67/127 215/75/127
f 252/76/128 253/74/128 215/75/128 214/77/128
f 251/78/129 252/76/129 214/77/129 213/79/129
f 256/69/130 251/78/130 213/79/130 218/70/130
f 271/80/131 250/81/131 212/82/131 267/83/131
f 234/84/1 237/85/1 210/86/1 207/87/1
f 174/13/37 7/60/37 5/88/37 220/89/37 202/90/37 248/33/37 176/34/37
f 220/89/1 236/91/1 209/92/1 202/90/1
f 237/85/1 235/93/1 208/94/1 210/86/1
f 233/95/1 234/84/1 207/87/1 206/96/1
f 232/97/1 233/95/1 206/96/1 205/98/1
f 231/99/1 232/97/1 205/98/1 204/100/1
f 236/91/1 231/99/1 204/100/1 209/92/1
f 239/101/100 201/102/100 203/63/100 249/62/100
f 269/103/1 230/104/1 201/105/1 268/106/1
f 117/107/1 6/108/1 230/104/1 269/103/1
f 27/109/1 24/110/1 231/99/1 236/91/1
f 24/110/1 23/111/1 232/97/1 231/99/1
f 23/111/1 22/112/1 233/95/1 232/97/1
f 22/112/1 21/113/1 234/84/1 233/95/1
f 30/114/1 20/115/1 235/93/1 237/85/1
f 5/88/1 27/109/1 236/91/1 220/89/1
f 21/113/1 30/114/1 237/85/1 234/84/1
f 203/63/122 221/10/122 222/10/122 212/63/122
f 216/67/132 219/66/132 229/54/132 226/47/132
f 211/71/133 218/70/133 228/39/133 238/58/133
f 219/66/134 217/73/134 227/55/134 229/54/134
f 215/75/135 216/67/135 226/47/135 225/45/135
f 214/77/136 215/75/136 225/45/136 224/43/136
f 213/79/137 214/77/137 224/43/137 223/40/137
f 218/70/138 213/79/138 223/40/138 228/39/138
f 267/83/139 212/82/139 222/36/139 270/35/139
f 201/102/100 230/7/100 221/10/100 203/63/100
f 177/3/100 239/101/100 249/62/100 175/5/100
f 266/61/140 193/5/140 250/81/140 271/80/140
f 199/14/141 198/19/141 251/78/141 256/69/141
f 198/19/142 197/21/142 252/76/142 251/78/142
f 197/21/143 196/11/143 253/74/143 252/76/143
f 196/11/144 195/12/144 254/64/144 253/74/144
f 200/15/145 194/16/145 255/72/145 257/65/145
f 192/13/146 199/14/146 256/69/146 247/68/146
f 195/12/147 200/15/147 257/65/147 254/64/147
f 175/5/122 249/62/122 250/62/122 193/5/122
f 207/87/1 210/86/1 246/31/1 243/30/1
f 202/90/1 209/92/1 245/26/1 248/33/1
f 210/86/1 208/94/1 244/32/1 246/31/1
f 206/96/1 207/87/1 243/30/1 242/29/1
f 205/98/1 206/96/1 242/29/1 241/28/1
f 204/100/1 205/98/1 241/28/1 240/27/1
f 209/92/1 204/100/1 240/27/1 245/26/1
f 268/106/1 201/105/1 239/2/1 272/1/1
f 33/60/37 7/60/37 258/60/37 211/60/37
f 211/60/37 258/60/37 259/60/37 247/60/37
f 174/60/37 192/60/37 260/60/37
f 192/60/37 247/60/37 259/60/37 260/60/37
f 263/52/148 262/51/148 274/51/148 275/52/148
f 208/94/1 268/106/1 272/1/1 244/32/1
f 194/16/149 266/61/149 271/80/149 255/72/149
f 217/73/150 267/83/150 270/35/150 227/55/150
f 20/115/1 117/107/1 269/103/1 235/93/1
f 235/93/1 269/103/1 268/106/1 208/94/1
f 255/72/151 271/80/151 267/83/151 217/73/151
f 183/16/152 265/6/152 266/61/152 194/16/152
f 227/55/153 270/35/153 119/38/153 40/56/153
f 178/25/99 264/4/99 265/6/99 183/16/99
f 244/32/1 272/1/1 264/4/1 178/25/1
f 275/52/154 274/51/154 277/51/154 278/52/154
f 261/50/155 109/49/155 126/49/155 273/50/155
f 110/53/156 263/52/156 275/52/156 127/53/156
f 262/51/157 261/50/157 273/50/157 274/51/157
f 132/53/158 278/52/158 281/52/158 137/53/158
f 273/50/159 126/49/159 131/49/159 276/50/159
f 127/53/160 275/52/160 278/52/160 132/53/160
f 274/51/161 273/50/161 276/50/161 277/51/161
f 281/52/162 280/51/162 283/51/162 284/52/162
f 277/51/163 276/50/163 279/50/163 280/51/163
f 278/52/164 277/51/164 280/51/164 281/52/164
f 276/50/165 131/49/165 136/49/165 279/50/165
f 142/53/166 284/52/166 287/52/166 147/53/166
f 279/50/167 136/49/167 141/49/167 282/50/167
f 137/53/168 281/52/168 284/52/168 142/53/168
f 280/51/169 279/50/169 282/50/169 283/51/169
f 283/51/170 282/50/170 285/50/170 286/51/170
f 284/52/171 283/51/171 286/51/171 287/52/171
f 282/50/172 141/49/172 146/49/172 285/50/172
f 288/50/173 151/49/173 156/49/173 291/50/173
f 287/52/174 286/51/174 289/51/174 290/52/174
f 285/50/175 146/49/175 151/49/175 288/50/175
f 147/53/176 287/52/176 290/52/176 152/53/176
f 286/51/177 285/50/177 288/50/177 289/51/177
f 292/51/178 291/50/178 294/50/178 295/51/178
f 152/53/179 290/52/179 293/52/179 157/53/179
f 289/51/180 288/50/180 291/50/180 292/51/180
f 290/52/181 289/51/181 292/51/181 293/52/181
f 296/52/182 295/51/182 298/51/182 299/52/182
f 293/52/183 292/51/183 295/51/183 296/52/183
f 291/50/184 156/49/184 161/49/184 294/50/184
f 157/53/185 293/52/185 296/52/185 162/53/185
f 294/50/186 161/49/186 166/49/186 297/50/186
f 162/53/187 296/52/187 299/52/187 167/53/187
f 295/51/188 294/50/188 297/50/188 298/51/188
f 298/51/189 297/50/189 171/50/189 172/51/189
f 299/52/190 298/51/190 172/51/190 173/52/190
f 297/50/191 166/49/191 171/50/191
f 167/53/192 299/52/192 173/53/192
