# Blender 5.2.0 LTS
# www.blender.org
mtllib modelo.mtl
o Sphere
v 0.000000 10.000000 0.000000
v 0.000000 9.598076 -1.500000
v 0.000000 7.000000 -3.000000
v 0.000000 4.401924 -1.500000
v 0.000000 4.000000 0.000000
v 1.172747 9.598076 -0.935235
v 2.031258 8.500000 -1.619874
v 2.345495 7.000000 -1.870469
v 2.031258 5.500000 -1.619874
v 1.172747 4.401924 -0.935235
v 1.462392 9.598076 0.333781
v 2.532937 8.500000 0.578126
v 2.924784 7.000000 0.667563
v 2.532937 5.500000 0.578126
v 1.462392 4.401924 0.333781
v 0.650826 9.598076 1.351453
v 1.127263 8.500000 2.340786
v 1.301651 7.000000 2.702907
v 1.127263 5.500000 2.340786
v 0.650826 4.401924 1.351453
v -0.650826 9.598076 1.351453
v -1.127263 8.500000 2.340786
v -1.301652 7.000000 2.702907
v -1.127263 5.500000 2.340786
v -0.650826 4.401924 1.351453
v -1.462392 9.598076 0.333781
v -2.532937 8.500000 0.578126
v -2.924784 7.000000 0.667562
v -2.532937 5.500000 0.578126
v -1.462392 4.401924 0.333781
v -1.172747 9.598076 -0.935235
v -2.031258 8.500000 -1.619874
v -2.345494 7.000000 -1.870470
v -2.031258 5.500000 -1.619874
v -1.172747 4.401924 -0.935235
v 0.000000 8.500000 -2.598077
v 0.000000 5.500000 -2.598077
v 0.000000 -1.500000 -1.000000
v 0.000000 5.500000 -1.000000
v 1.000000 -1.500000 0.000000
v 1.000000 5.500000 0.000000
v 0.000000 -1.500000 1.000000
v 0.000000 5.500000 1.000000
v -1.000000 -1.500000 0.000000
v -1.000000 5.500000 0.000000
vn 0.1237 -0.9585 -0.2568
vn 0.4218 -0.2347 -0.8758
vn 0.3223 0.6694 -0.6694
vn 0.3223 -0.6694 -0.6694
vn 0.4218 0.2347 -0.8758
vn 0.1237 0.9585 -0.2568
vn 0.7243 -0.6694 -0.1653
vn 0.9477 0.2347 -0.2163
vn 0.2779 0.9585 -0.0634
vn 0.2779 -0.9585 -0.0634
vn 0.9477 -0.2347 -0.2163
vn 0.7243 0.6694 -0.1653
vn 0.5809 -0.6694 0.4632
vn 0.7600 0.2347 0.6061
vn 0.2229 0.9585 0.1777
vn 0.2229 -0.9585 0.1777
vn 0.7600 -0.2347 0.6061
vn 0.5809 0.6694 0.4632
vn -0.0000 -0.6694 0.7429
vn -0.0000 0.2347 0.9721
vn -0.0000 0.9585 0.2851
vn -0.0000 -0.9585 0.2851
vn -0.0000 -0.2347 0.9721
vn -0.0000 0.6694 0.7429
vn -0.5809 -0.6694 0.4632
vn -0.7600 0.2347 0.6061
vn -0.2229 0.9585 0.1777
vn -0.2229 -0.9585 0.1777
vn -0.7600 -0.2347 0.6061
vn -0.5809 0.6694 0.4632
vn -0.9477 0.2347 -0.2163
vn -0.2779 0.9585 -0.0634
vn -0.2779 -0.9585 -0.0634
vn -0.9477 -0.2347 -0.2163
vn -0.7243 0.6694 -0.1653
vn -0.7243 -0.6694 -0.1653
vn -0.1237 0.9585 -0.2568
vn -0.1237 -0.9585 -0.2568
vn -0.4218 -0.2347 -0.8758
vn -0.3223 0.6694 -0.6694
vn -0.3223 -0.6694 -0.6694
vn -0.4218 0.2347 -0.8758
vn 0.7071 -0.0000 -0.7071
vn 0.7071 -0.0000 0.7071
vn -0.0000 1.0000 -0.0000
vn -0.7071 -0.0000 0.7071
vn -0.7071 -0.0000 -0.7071
vn -0.0000 -1.0000 -0.0000
vt 0.606980 0.451162
vt 0.695473 0.450538
vt 0.662853 0.518341
vt 0.012423 0.237455
vt 0.000000 0.150541
vt 0.149867 0.150541
vt 0.142212 0.237455
vt 0.012423 0.063626
vt 0.046364 0.000000
vt 0.121297 0.000000
vt 0.142212 0.063626
vt 0.046364 0.301081
vt 0.121297 0.301081
vt 0.256152 0.447848
vt 0.343067 0.447848
vt 0.288877 0.515800
vt 0.707464 0.565739
vt 0.580509 0.594398
vt 0.589556 0.534887
vt 0.234738 0.063626
vt 0.256707 0.150541
vt 0.362407 0.532583
vt 0.234738 0.237455
vt 0.249207 0.565545
vt 0.376566 0.594614
vt 0.757294 0.209061
vt 0.684438 0.238002
vt 0.684438 0.107426
vt 0.757294 0.133673
vt 0.595172 0.248254
vt 0.513413 0.237071
vt 0.513413 0.106496
vt 0.595172 0.097478
vt 0.421375 0.485558
vt 0.530776 0.487717
vt 0.478700 0.513165
vt 0.478700 0.512697
vt 0.478700 0.382159
vt 0.530776 0.412350
vt 0.000000 0.451622
vt 0.022491 0.364707
vt 0.107771 0.364707
vt 0.098472 0.451622
vt 0.421375 0.410137
vt 0.616272 0.000000
vt 0.702712 0.023007
vt 0.478700 0.382530
vt 0.133174 0.602163
vt 0.107771 0.538537
vt 0.238310 0.538537
vt 0.208541 0.602163
vt 0.238310 0.364707
vt 0.249207 0.451622
vt 0.362407 0.363112
vt 0.589556 0.365540
vt 0.133174 0.301081
vt 0.208541 0.301081
vt 0.278676 0.063626
vt 0.371202 0.063626
vt 0.363547 0.150541
vt 0.288877 0.379895
vt 0.662853 0.382535
vt 0.278676 0.237455
vt 0.371202 0.237455
vt 0.376566 0.301081
vt 0.249207 0.330150
vt 0.580509 0.301081
vt 0.707464 0.330517
vt 0.513413 0.150541
vt 0.500990 0.237455
vt 0.392116 0.000000
vt 0.467049 0.000000
vt 0.500990 0.063626
vt 0.392116 0.301081
vt 0.467049 0.301081
vt 0.870853 0.706683
vt 0.870853 0.301081
vt 0.950772 0.301081
vt 0.950772 0.706683
vt 0.789183 0.700144
vt 0.789183 0.301081
vt 0.870853 0.302279
vt 0.870853 0.701342
vt 0.640563 0.676342
vt 0.558619 0.676342
vt 0.558619 0.594398
vt 0.640563 0.594398
vt 0.707464 0.706683
vt 0.707464 0.301081
vt 0.789183 0.301081
vt 0.789183 0.706683
vt 0.478700 1.000000
vt 0.478700 0.594398
vt 0.558619 0.594398
vt 0.558619 1.000000
vt 0.249207 0.594813
vt 0.330865 0.594614
vt 0.330865 0.676523
vt 0.249207 0.676722
s 0
usemtl arbol
f 5/1/1 4/2/1 10/3/1
f 37/4/2 3/5/2 8/6/2 9/7/2
f 36/8/3 2/9/3 6/10/3 7/11/3
f 4/12/4 37/4/4 9/7/4 10/13/4
f 3/5/5 36/8/5 7/11/5 8/6/5
f 2/14/6 1/15/6 6/16/6
f 10/3/7 9/17/7 14/18/7 15/19/7
f 8/6/8 7/11/8 12/20/8 13/21/8
f 6/16/9 1/15/9 11/22/9
f 5/1/10 10/3/10 15/19/10
f 9/7/11 8/6/11 13/21/11 14/23/11
f 7/24/12 6/16/12 11/22/12 12/25/12
f 15/26/13 14/27/13 19/28/13 20/29/13
f 13/30/14 12/31/14 17/32/14 18/33/14
f 11/22/15 1/15/15 16/34/15
f 5/1/16 15/19/16 20/35/16
f 14/27/17 13/30/17 18/33/17 19/28/17
f 12/25/18 11/22/18 16/34/18 17/36/18
f 20/35/19 19/37/19 24/38/19 25/39/19
f 18/40/20 17/41/20 22/42/20 23/43/20
f 16/34/21 1/15/21 21/44/21
f 5/1/22 20/35/22 25/39/22
f 19/28/23 18/33/23 23/45/23 24/46/23
f 17/36/24 16/34/24 21/44/24 22/47/24
f 25/48/25 24/49/25 29/50/25 30/51/25
f 23/43/26 22/42/26 27/52/26 28/53/26
f 21/44/27 1/15/27 26/54/27
f 5/1/28 25/39/28 30/55/28
f 24/49/29 23/43/29 28/53/29 29/50/29
f 22/42/30 21/56/30 26/57/30 27/52/30
f 28/21/31 27/58/31 32/59/31 33/60/31
f 26/54/32 1/15/32 31/61/32
f 5/1/33 30/55/33 35/62/33
f 29/63/34 28/21/34 33/60/34 34/64/34
f 27/65/35 26/54/35 31/61/35 32/66/35
f 30/55/36 29/67/36 34/68/36 35/62/36
f 31/61/37 1/15/37 2/14/37
f 5/1/38 35/62/38 4/2/38
f 34/64/39 33/60/39 3/69/39 37/70/39
f 32/59/40 31/71/40 2/72/40 36/73/40
f 35/74/41 34/64/41 37/70/41 4/75/41
f 33/60/42 32/59/42 36/73/42 3/69/42
f 38/76/43 39/77/43 41/78/43 40/79/43
f 40/80/44 41/81/44 43/82/44 42/83/44
f 41/84/45 39/85/45 45/86/45 43/87/45
f 42/88/46 43/89/46 45/90/46 44/91/46
f 44/92/47 45/93/47 39/94/47 38/95/47
f 38/96/48 40/97/48 42/98/48 44/99/48
